# xmcd
#
# Track frame offsets:
#	150
#	17989
#	33416
#	55982
#	69496
#	85465
#	102884
#	118383
#	132740
#	149900
#	165686
#	181836
#	197329
#	213814
#	228119
#	245225
#	261865
#	276211
#	291824
#	306938
#	320700
#
# Disc length: 4439 seconds
#
# Revision: 3
# Processed by: cddbd v1.5.2PL0 Copyright (c) Steve Scherf et al.
# Submitted via: audiograbber 1.83.01
#
DISCID=4b115515
DTITLE=Various Artist - Bravo Hits 65 - CD1
DYEAR=2009
DGENRE=Pop
TTITLE0=Lady Gaga - Poker Face
TTITLE1=Flo Rida feat. Ke$ha - Right Round
TTITLE2=T.I. feat. Justin Timberlake - Dead And Gone
TTITLE3=Metro Station - Shake It
TTITLE4=Kelly Clarkson - My Life Would Suck Without You
TTITLE5=Enrique Iglesias feat. Sarah Connor - Takin' Back My Love
TTITLE6=Lily Allen - The Fear
TTITLE7=Big Ali feat. Dollar Man - Hit The Floor "Power"
TTITLE8=Akon feat. Colby O'Donis and Kardinal Offishall - Beautiful
TTITLE9=Fler feat. Doreen - Ich sing nicht mehr für dich
TTITLE10=Peter Fox - Schwarz zu blau
TTITLE11=Jordin Sparks - One Step At A Time
TTITLE12=Brandy - Right Here (Departed)
TTITLE13=Britney Spears - Circus
TTITLE14=Jeanette - Undress To The Beat
TTITLE15=Polarkreis 18 - The Colour Of Snow
TTITLE16=Valerie - Es geht nicht
TTITLE17=Global Deejays feat. Rozalla - Everbody's Free 2009
TTITLE18=David May - Superstar
TTITLE19=Sander Van Doorn vs. Robbie Williams - Close My Eyes
TTITLE20=Kid Cudi vs. Crookers - Day 'N' Nite
EXTD=
EXTT0=
EXTT1=
EXTT2=
EXTT3=
EXTT4=
EXTT5=
EXTT6=
EXTT7=
EXTT8=
EXTT9=
EXTT10=
EXTT11=
EXTT12=
EXTT13=
EXTT14=
EXTT15=
EXTT16=
EXTT17=
EXTT18=
EXTT19=
EXTT20=
PLAYORDER=
